# xmcd
#
# Track frame offsets: 
#        150
#        16951
#        35725
#        52375
#        70220
#        89692
#        108726
#        126081
#        146180
#        160282
#        179782
#        196437
#        213237
#        230137
#        254514
#        270189
#        290048
#        305070
#        325477
#
# Disc length: 4497 seconds
#
# Revision: 0
# Processed by: cddbd v1.5.1PL0 Copyright (c) Steve Scherf et al.
# Submitted via: ExactAudioCopy v0.95a3
#
DISCID=3f118f13
DTITLE=Various Artist - Супердискотека. Июль 2001
DYEAR=2001
DGENRE=Polka
TTITLE0=Revoльvers - Крошка, Ты Супер
TTITLE1=Руки Вверх! - Серёжа (Dance Mix)
TTITLE2=Стрелки - Причини Мне Любовь
TTITLE3=Турбомода - Не Целуй Её
TTITLE4=Тату - Досчитай До Ста
TTITLE5=Plazma - Jump In My Car
TTITLE6=140 Ударов С Минуту - Прости Его
TTITLE7=Сливки - Двигай Своим Телом
TTITLE8=Карамель - Я Забуду О Тебе
TTITLE9=Наталья Ветлицкая - Мальчики
TTITLE10=Reflex - Моя Любовь
TTITLE11=Катя Лель - Горошины
TTITLE12=Хали-Гали - Лепестки Сирени
TTITLE13=Шао? Бао! - Нарисую (Dance Mix)
TTITLE14=Виа Гра - Обними Меня
TTITLE15=Жин Жин - Знаешь
TTITLE16=Игорёк - Девочка Марина
TTITLE17=Демо - Интернет
TTITLE18=Света - Твои Глаза
EXTD=
EXTT0=
EXTT1=
EXTT2=
EXTT3=
EXTT4=
EXTT5=
EXTT6=
EXTT7=
EXTT8=
EXTT9=
EXTT10=
EXTT11=
EXTT12=
EXTT13=
EXTT14=
EXTT15=
EXTT16=
EXTT17=
EXTT18=
PLAYORDER=
